<svg enable-background="new 0 0 48 48" height="512" viewBox="0 0 48 48" width="512" xmlns="http://www.w3.org/2000/svg"><g id="_x34_3-Love"><g id="Layer_44"><g><path d="m24.0033627 39.8447266c-.2636719 0-.5170898-.1044922-.7050781-.2910156l-.2304688-.2304688c-3.4550781-3.4521484-6.0688477-5.8828125-8.3754873-8.0283203-.6938477-.6455078-1.3637695-1.2695313-2.0258789-1.8916016-2.4858398-2.3398438-4.8032227-4.6660156-5.8535156-7.3974609-1.2631837-3.2910156-.9028321-6.7558594.9887695-9.5078125 1.8686523-2.7197266 4.956543-4.3427734 8.2597647-4.3427734 2.71875 0 5.402832 1.0839844 7.7617188 3.1357422l.1762695.1728516.1308594-.1298828c2.4057617-2.0947266 5.0893555-3.1787109 7.8081055-3.1787109 3.3027363 0 6.3906269 1.6230469 8.2597675 4.3427734 1.8916016 2.7519531 2.2519531 6.2177734.9892578 9.5068359-1.0498047 2.7294922-3.3671875 5.0566406-5.8525391 7.3974609-.6621094.6220703-1.3310547 1.2441406-2.0224609 1.8876953-2.3076191 2.1464844-4.92383 4.5791016-8.380373 8.0332031-.0698242.0703125-.1279297.1279297-.190918.1962891-.1835938.2011719-.4418945.3183594-.7138672.3251953-.0078126 0-.0161133 0-.0239258 0zm-7.9418946-29.6894532c-2.6445303 0-5.11621 1.2988281-6.6118155 3.4755859-1.5126953 2.2011719-1.793457 4.9921875-.7700195 7.6572266.8994141 2.3378906 3.046875 4.4833984 5.3569336 6.6582031.6591797.6201172 1.3266602 1.2412109 2.0180655 1.8837891 2.2104492 2.0566406 4.7021484 4.3740234 7.9453125 7.5986328 3.2509766-3.2324219 5.7412109-5.5478516 7.9501953-7.6025391.689455-.6416016 1.3554707-1.2617188 2.0146503-1.8798828 2.3085938-2.1757813 4.4570313-4.3222656 5.3554688-6.6591797 1.0234375-2.6640625.7421875-5.4550781-.7705078-7.65625-1.4960938-2.1767578-3.9667969-3.4755859-6.61133-3.4755859-2.2294922 0-4.4589844.9150391-6.4492188 2.6455078l-.7832031.7763672c-.3886719.3818359-1.0126953.3847656-1.4023438.0029297l-.8364258-.8193359c-1.946289-1.6904297-4.1762695-2.6054688-6.4057617-2.6054688z"/></g></g></g></svg>